<?xml version="1.0" standalone="no"?>
<!DOCTYPE svg PUBLIC "-//W3C//DTD SVG 20010904//EN"
 "http://www.w3.org/TR/2001/REC-SVG-20010904/DTD/svg10.dtd">
<svg version="1.0" xmlns="http://www.w3.org/2000/svg"
 width="517.000000pt" height="517.000000pt" viewBox="0 0 517.000000 517.000000"
 preserveAspectRatio="xMidYMid meet">
<metadata>
Created by potrace 1.14, written by Peter Selinger 2001-2017
</metadata>
<g transform="translate(0.000000,517.000000) scale(0.100000,-0.100000)"
fill="#000000" stroke="none">
<path d="M2681 4873 c-19 -7 -91 -86 -91 -99 0 -3 -11 -20 -24 -37 -13 -18
-38 -63 -57 -102 -27 -57 -34 -84 -35 -144 -3 -71 10 -126 27 -115 5 2 6 24 2
47 -8 54 -8 57 1 91 5 21 4 26 -6 20 -10 -6 -10 -4 0 8 7 9 15 32 17 50 3 18
9 34 15 36 5 2 10 11 10 20 0 10 9 28 20 42 11 14 20 31 20 38 0 6 4 12 8 12
4 0 16 14 26 32 22 36 42 62 70 89 21 20 20 21 -3 12z"/>
<path d="M2268 4345 c-2 -2 -32 -5 -66 -7 -35 -1 -66 -6 -68 -10 -3 -5 -13 -8
-23 -8 -24 0 -181 -79 -181 -91 0 -5 -6 -9 -12 -9 -13 0 -37 -18 -104 -74 -19
-15 -34 -24 -34 -20 0 4 -8 -2 -17 -15 -10 -13 -39 -47 -65 -75 -69 -75 -98
-113 -92 -118 2 -3 -2 -11 -11 -18 -8 -7 -15 -20 -15 -29 0 -9 -5 -22 -12 -29
-7 -7 -9 -12 -5 -12 4 0 0 -14 -9 -31 -8 -17 -18 -41 -20 -52 -9 -39 -12 -52
-14 -52 -1 0 -3 -11 -6 -25 -14 -84 -20 -112 -24 -117 -2 -2 -4 -7 -5 -13 -1
-5 -3 -11 -5 -12 -3 -5 -18 -83 -25 -133 -2 -16 -6 -39 -8 -49 -2 -11 0 -40 5
-65 5 -25 11 -91 14 -146 9 -141 19 -192 48 -230 9 -11 16 -29 16 -41 0 -11 3
-24 7 -28 4 -3 8 -14 9 -24 2 -9 8 -18 14 -20 6 -2 17 -11 26 -19 11 -12 12
-18 3 -29 -6 -8 -8 -14 -5 -14 4 0 3 -8 -3 -17 -5 -10 -12 -38 -15 -63 -4 -25
-9 -56 -11 -70 -8 -54 -16 -96 -22 -115 -3 -11 -7 -42 -7 -70 -1 -27 -4 -54
-8 -60 -6 -10 -3 -152 5 -195 14 -78 20 -100 29 -100 5 0 6 -5 3 -10 -4 -6 -2
-17 4 -24 6 -7 12 -25 13 -40 1 -14 5 -26 9 -26 4 0 -2 -17 -12 -37 -15 -28
-16 -39 -6 -45 8 -5 8 -8 1 -8 -13 0 -12 -69 1 -115 4 -16 19 -41 31 -54 20
-21 33 -25 80 -26 46 0 59 -4 68 -20 6 -11 13 -22 16 -25 15 -15 50 -71 50
-80 0 -5 5 -10 10 -10 6 0 10 -6 10 -12 0 -18 60 -103 82 -117 10 -6 35 -14
55 -17 21 -4 45 -8 53 -9 8 -2 30 -4 48 -4 19 -1 31 -5 27 -11 -3 -5 -2 -10 3
-10 6 0 7 -14 1 -37 -11 -49 -11 -103 -1 -103 5 0 23 15 40 34 22 25 45 37 82
45 28 6 65 19 83 28 60 32 62 30 62 -92 0 -103 -1 -110 -20 -110 -24 0 -120
-48 -120 -61 -1 -5 -7 -20 -15 -34 -19 -35 -21 -58 -25 -280 -1 -107 -5 -204
-7 -215 -7 -32 -77 -177 -95 -197 -9 -10 -13 -18 -9 -18 4 0 -2 -9 -12 -20
-10 -11 -28 -38 -40 -60 l-21 -40 804 0 c525 0 806 3 810 10 3 6 2 10 -3 10
-4 0 -16 15 -25 32 -25 48 -40 71 -59 89 -10 9 -15 18 -13 21 3 3 -6 17 -19
31 -14 15 -23 27 -20 27 2 0 -12 22 -31 50 -19 27 -35 54 -35 59 0 5 -7 14
-15 21 -8 7 -12 16 -9 21 3 5 1 9 -4 9 -5 0 -15 12 -23 27 -8 16 -16 30 -19
33 -4 3 -20 29 -38 58 -36 59 -49 107 -46 172 7 122 8 380 3 380 -4 0 -9 9
-12 20 -3 13 -17 22 -36 26 -18 4 -35 14 -40 23 -9 17 -3 108 9 141 1 3 1 15
0 28 -1 12 3 22 9 22 6 0 8 7 5 15 -4 8 -2 15 3 15 5 0 24 27 43 60 19 33 37
60 41 60 4 0 13 -26 19 -57 27 -137 37 -156 46 -91 3 18 11 50 19 70 8 21 13
38 10 38 -2 0 37 43 88 95 51 52 91 95 90 95 -2 0 2 6 9 14 7 8 16 12 21 9 4
-2 7 0 7 5 0 5 12 23 28 39 51 58 72 85 72 96 0 5 3 7 7 4 3 -4 15 7 25 24 10
17 23 36 28 42 48 59 60 76 60 86 0 7 7 14 15 17 8 4 13 9 10 13 -2 4 8 21 23
38 49 56 62 77 58 90 -3 7 -1 13 4 13 4 0 11 13 15 29 3 16 13 32 21 35 8 3
14 10 14 16 0 6 -5 8 -12 4 -7 -4 -8 -3 -4 4 4 6 14 8 22 5 14 -5 15 -3 4 17
-7 12 -8 20 -2 16 10 -6 30 56 34 108 2 16 9 31 16 34 7 2 10 -2 6 -11 -3 -8
-1 -18 5 -22 6 -3 11 -22 11 -41 0 -19 4 -34 8 -34 4 0 8 44 7 98 0 53 1 101
4 107 5 9 9 33 16 95 8 75 13 92 30 108 10 10 14 11 10 3 -11 -20 -11 -111 0
-111 6 0 11 15 12 33 1 17 3 56 5 85 2 29 1 55 -3 58 -4 2 -6 12 -5 22 2 9 -3
37 -10 62 -16 53 -18 116 -4 125 6 3 10 -1 10 -9 0 -9 5 -16 10 -16 6 0 9 -3
8 -7 -5 -13 31 -57 39 -49 4 4 3 10 -3 14 -8 6 -53 91 -59 112 -11 36 -58 134
-69 142 -6 4 -8 8 -4 8 4 0 2 17 -6 38 -8 20 -17 46 -22 57 -9 25 -13 44 -16
73 -1 12 -7 22 -12 22 -5 0 -7 3 -3 6 3 4 0 22 -8 40 -8 19 -11 34 -8 34 3 0
0 6 -6 13 -6 8 -8 17 -4 20 3 4 1 7 -5 7 -10 0 -28 56 -24 74 2 4 -6 16 -17
26 -12 9 -18 19 -15 22 8 8 -34 74 -72 112 -19 19 -34 33 -34 31 0 -2 -15 11
-33 28 -56 54 -111 97 -124 97 -7 0 -13 4 -13 8 0 4 -22 21 -50 37 -27 16 -50
34 -50 39 0 5 -3 7 -6 3 -4 -3 -13 1 -21 9 -8 8 -19 12 -24 9 -5 -4 -9 -2 -9
3 0 7 -38 31 -60 37 -3 1 -36 16 -73 34 -37 18 -77 33 -88 34 -10 1 -19 6 -19
11 0 5 -3 6 -6 3 -4 -3 -15 -2 -24 3 -10 5 -33 12 -51 14 -67 10 -94 17 -117
32 -38 25 -98 43 -113 34 -7 -5 -18 -6 -24 -2 -13 9 -85 10 -85 2 0 -4 -10 -6
-22 -5 -13 1 -42 -4 -65 -11 -24 -7 -45 -13 -48 -14 -3 0 -6 0 -7 -1 -41 -12
-98 -16 -98 -7 0 6 -9 8 -20 5 -11 -3 -20 -1 -20 5 0 5 -4 6 -10 3 -5 -3 -10
-1 -10 5 0 6 -4 8 -10 5 -5 -3 -10 -3 -10 2 0 4 -15 9 -32 10 -18 1 -49 4 -68
8 -46 8 -118 14 -122 10z"/>
</g>
</svg>
